<svg t="1653829895662" class="icon" viewBox="0 0 1024 1024" version="1.1" xmlns="http://www.w3.org/2000/svg" p-id="2620" width="200" height="200"><path d="M902.363429 373.906286c39.789714 0 72.118857 32.256 72.118857 72.045714v480.475429a72.118857 72.118857 0 0 1-72.118857 72.045714h-96.036572a72.118857 72.118857 0 0 1-72.118857-72.045714v-480.548572c0-39.789714 32.256-72.118857 72.118857-72.118857h96.036572v0.146286zM229.668571 469.942857c39.789714 0 72.118857 32.256 72.118858 72.045714v384.292572a72.118857 72.118857 0 0 1-72.118858 72.118857H133.705143a72.118857 72.118857 0 0 1-72.118857-72.118857V541.988571c0-39.789714 32.256-72.118857 72.118857-72.118857H229.668571v0.146286z m336.310858 96.036572c39.789714 0 72.118857 32.256 72.118857 72.118857v288.182857a72.118857 72.118857 0 0 1-72.118857 72.118857H470.016a72.118857 72.118857 0 0 1-72.118857-72.118857v-288.182857c0-39.862857 32.256-72.118857 72.118857-72.118857h96.036571z m248.685714-467.821715l-56.685714 0.365715a35.986286 35.986286 0 0 1-0.585143-72.045715l144.603428-1.024a35.84 35.84 0 0 1 36.278857 36.059429v144.822857a36.059429 36.059429 0 0 1-71.972571 0v-57.782857L543.451429 471.332571a35.913143 35.913143 0 0 1-40.082286 7.387429L70.948571 286.72a36.132571 36.132571 0 0 1 29.257143-65.901714l409.819429 182.125714 304.713143-304.713143z" p-id="2621"></path></svg>