<svg t="1653431376063" class="icon" viewBox="0 0 1024 1024" version="1.1" xmlns="http://www.w3.org/2000/svg" p-id="2000" width="200" height="200"><path d="M919.466667 526.933333c-17.066667 0-32-14.933333-32-32 0-6.4 2.133333-12.8 6.4-17.066666l61.866666-89.6c10.666667-14.933333 29.866667-17.066667 44.8-8.533334s17.066667 29.866667 8.533334 44.8l-61.866667 89.6c-8.533333 8.533333-19.2 12.8-27.733333 12.8z" p-id="2001"></path><path d="M919.466667 526.933333c-6.4 0-12.8-2.133333-17.066667-6.4L810.666667 460.8c-14.933333-8.533333-19.2-29.866667-10.666667-44.8s29.866667-19.2 44.8-10.666667l2.133333 2.133334 89.6 61.866666c14.933333 10.666667 19.2 29.866667 8.533334 44.8-6.4 8.533333-17.066667 12.8-25.6 12.8z" p-id="2002"></path><path d="M482.133333 983.466667C221.866667 983.466667 10.666667 772.266667 10.666667 514.133333S221.866667 42.666667 482.133333 40.533333c228.266667 0 422.4 162.133333 462.933334 386.133334 2.133333 17.066667-8.533333 34.133333-25.6 38.4-17.066667 2.133333-34.133333-8.533333-38.4-25.6C840.533333 219.733333 629.333333 72.533333 407.466667 113.066667S40.533333 364.8 81.066667 586.666667 334.933333 953.6 554.666667 913.066667c110.933333-21.333333 209.066667-87.466667 270.933333-183.466667 8.533333-14.933333 29.866667-19.2 44.8-10.666667 14.933333 8.533333 19.2 29.866667 10.666667 44.8-87.466667 136.533333-236.8 219.733333-398.933334 219.733334z" p-id="2003"></path><path d="M482.133333 450.133333c-113.066667 0-236.8-34.133333-236.8-108.8s121.6-106.666667 236.8-106.666666 236.8 34.133333 236.8 106.666666-123.733333 108.8-236.8 108.8z m0-153.6c-108.8 0-168.533333 32-172.8 44.8 4.266667 10.666667 61.866667 44.8 172.8 44.8s166.4-32 172.8-44.8c-6.4-12.8-64-44.8-172.8-44.8z m172.8 44.8z" p-id="2004"></path><path d="M482.133333 563.2c-113.066667 0-236.8-34.133333-236.8-108.8 0-17.066667 14.933333-32 32-32s32 14.933333 32 32c4.266667 12.8 61.866667 44.8 172.8 44.8s168.533333-32 172.8-44.8c0-17.066667 14.933333-32 32-32s32 14.933333 32 32c0 74.666667-123.733333 108.8-236.8 108.8z" p-id="2005"></path><path d="M482.133333 678.4c-113.066667 0-236.8-34.133333-236.8-108.8 0-17.066667 14.933333-32 32-32s32 14.933333 32 32c4.266667 10.666667 61.866667 44.8 172.8 44.8s168.533333-32 172.8-44.8c0-17.066667 14.933333-32 32-32s32 14.933333 32 32c0 74.666667-123.733333 108.8-236.8 108.8z" p-id="2006"></path><path d="M482.133333 791.466667c-113.066667 0-236.8-34.133333-236.8-108.8V339.2c0-17.066667 14.933333-32 32-32s32 14.933333 32 32v341.333333c4.266667 12.8 61.866667 44.8 172.8 44.8s168.533333-32 172.8-44.8v-341.333333c0-17.066667 14.933333-32 32-32s32 14.933333 32 32v341.333333c0 76.8-123.733333 110.933333-236.8 110.933334z" p-id="2007"></path></svg>
